HIERARCHY
ROOT Hips
{
  OFFSET 0.000000 0.000000 0.000000
  CHANNELS 6 Xposition Yposition Zposition Xrotation Yrotation Zrotation
  JOINT Spine
  {
    OFFSET 0.762862 23.197727 -6.058858
    CHANNELS 3 Xrotation Yrotation Zrotation
    JOINT Chest
    {
      OFFSET 0.762862 23.197727 -6.058858
      CHANNELS 3 Xrotation Yrotation Zrotation
      JOINT Neck
      {
        OFFSET -0.270074 9.229822 -3.797407
        CHANNELS 3 Xrotation Yrotation Zrotation
        JOINT Head
        {
          OFFSET 0.225285 8.430608 -7.939136
          CHANNELS 3 Xrotation Yrotation Zrotation
          End Site
          {
            OFFSET 0.067585 2.529182 -2.381741
          }
        }
      }
      JOINT LeftShoulder
      {
        OFFSET 17.595006 0.044015 0.996102
        CHANNELS 3 Xrotation Yrotation Zrotation
        JOINT LeftArm
        {
          OFFSET 3.473531 -23.049457 3.982832
          CHANNELS 3 Xrotation Yrotation Zrotation
          JOINT LeftForeArm
          {
            OFFSET 3.218371 -22.980839 -10.241008
            CHANNELS 3 Xrotation Yrotation Zrotation
            JOINT LeftHand
            {
              OFFSET -0.008887 -5.924601 -2.989147
              CHANNELS 3 Xrotation Yrotation Zrotation
              End Site
              {
                OFFSET -0.002666 -1.777380 -0.896744
              }
            }
          }
        }
      }
      JOINT RightShoulder
      {
        OFFSET -17.595006 -0.044015 -0.996102
        CHANNELS 3 Xrotation Yrotation Zrotation
        JOINT RightArm
        {
          OFFSET -5.553442 -24.118242 6.751946
          CHANNELS 3 Xrotation Yrotation Zrotation
          JOINT RightForeArm
          {
            OFFSET -3.099014 -24.977112 -8.059516
            CHANNELS 3 Xrotation Yrotation Zrotation
            JOINT RightHand
            {
              OFFSET 0.298828 -5.701374 -2.573080
              CHANNELS 3 Xrotation Yrotation Zrotation
              End Site
              {
                OFFSET 0.089648 -1.710412 -0.771924
              }
            }
          }
        }
      }
    }
  }
  JOINT LeftUpLeg
  {
    OFFSET 11.990773 -0.614304 0.788698
    CHANNELS 3 Xrotation Yrotation Zrotation
    JOINT LeftLeg
    {
      OFFSET -5.144974 -41.347031 -0.530598
      CHANNELS 3 Xrotation Yrotation Zrotation
      JOINT LeftFoot
      {
        OFFSET 2.709190 -35.138144 18.775504
        CHANNELS 3 Xrotation Yrotation Zrotation
        End Site
        {
          OFFSET 0.812757 -10.541443 5.632651
        }
      }
    }
  }
  JOINT RightUpLeg
  {
    OFFSET -11.990773 0.614304 -0.788698
    CHANNELS 3 Xrotation Yrotation Zrotation
    JOINT RightLeg
    {
      OFFSET 0.284998 -37.357294 5.081156
      CHANNELS 3 Xrotation Yrotation Zrotation
      JOINT RightFoot
      {
        OFFSET 4.690763 -28.563407 28.545631
        CHANNELS 3 Xrotation Yrotation Zrotation
        End Site
        {
          OFFSET 1.407229 -8.569022 8.563689
        }
      }
    }
  }
}
MOTION
Frames: 12
Frame Time: 0.083333
-8.559344 60.001599 -10.585336 2.295536 0.382660 1.840840 2.295536 0.382660 1.840840 1.317253 -0.000489 -0.105408 1.109297 0.092275 0.137668 5.000000 0.000000 0.000000 5.864108 1.563020 5.985908 1.501015 0.610496 -1.183301 98.341829 4.995673 -0.644265 0.000000 0.000000 0.000000 6.954378 -1.171128 1.939772 1.407563 -0.132882 0.290462 92.448783 14.241202 -0.767118 0.000000 0.000000 0.000000 -1.018848 0.125897 0.674938 -0.299541 0.751924 1.449639 0.000000 0.000000 0.000000 1.239466 -0.018672 -0.090635 17.597736 2.365820 -0.202809 0.000000 0.000000 0.000000
-9.368808 60.001610 -11.865411 5.508872 -0.037949 0.557967 5.508872 -0.037949 0.557967 1.475145 0.020391 -0.061578 1.237913 0.251715 0.323726 5.000000 0.000000 0.000000 8.776225 2.028029 7.972145 7.662085 1.132479 -1.674865 101.251135 13.047047 -1.101054 0.000000 0.000000 0.000000 6.020081 -1.263022 0.464695 2.242371 -0.149353 0.270199 92.886643 14.275619 -0.688486 0.000000 0.000000 0.000000 -0.495105 0.065615 0.461139 0.643088 1.149164 2.088377 0.000000 0.000000 0.000000 5.190028 0.154330 1.424852 26.175165 3.105515 -0.718009 0.000000 0.000000 0.000000
-10.089308 60.001602 -12.827060 10.202812 -0.376532 -0.292531 10.202812 -0.376532 -0.292531 1.454330 0.114765 0.203717 1.285404 0.446187 0.549741 5.000000 0.000000 0.000000 11.299942 2.334247 9.518395 13.258857 1.642691 -2.050621 109.174069 18.544571 0.316678 0.000000 0.000000 0.000000 6.373689 -1.500292 -0.257452 2.947985 -0.176800 0.292192 94.371267 12.464804 0.016832 0.000000 0.000000 0.000000 2.918103 -0.360539 -0.025006 0.880268 1.418507 2.586518 0.000000 0.000000 0.000000 11.695650 0.145333 1.711128 27.369884 2.766060 -1.451277 0.000000 0.000000 0.000000
-10.654293 60.001579 -13.337856 11.705195 -0.434610 -0.368515 11.705195 -0.434610 -0.368515 1.705338 0.218530 0.484615 1.592984 0.542680 0.683021 5.000000 0.000000 0.000000 13.714464 2.534367 10.463301 18.843868 2.101774 -2.263305 110.600463 21.625368 0.788193 0.000000 0.000000 0.000000 6.697673 -1.728160 -0.967745 3.491634 -0.213534 0.352554 94.097615 10.370556 0.444804 0.000000 0.000000 0.000000 4.040723 -0.474842 -0.501013 1.684406 1.406276 2.527005 0.000000 0.000000 0.000000 12.898249 0.127784 1.355009 20.310924 1.231159 -2.379980 0.000000 0.000000 0.000000
-11.098777 60.001559 -13.112865 12.649261 -0.383118 0.170021 12.649261 -0.383118 0.170021 2.046406 0.349636 0.846633 2.031905 0.667717 0.859782 5.000000 0.000000 0.000000 15.326797 2.649287 11.105559 19.055919 2.297353 -2.529956 109.699733 23.550226 0.597894 0.000000 0.000000 0.000000 6.263974 -1.698360 -1.258729 3.321905 -0.257206 0.487613 0.000000 0.000000 0.000000 0.000000 0.000000 0.000000 5.167968 -0.560222 -1.374001 -0.729799 0.708425 1.556947 0.000000 0.000000 0.000000 13.059403 0.111779 0.532472 12.816544 0.027924 -2.619829 0.000000 0.000000 0.000000
-11.816313 60.002026 -12.058582 13.057281 -0.249997 1.187002 13.057281 -0.249997 1.187002 1.951957 0.452190 1.144667 2.002989 0.658248 0.846254 5.000000 0.000000 0.000000 14.997893 2.631784 11.138785 17.586304 2.245252 -2.590978 110.251136 9.330622 0.237316 0.000000 0.000000 0.000000 7.567271 -1.906058 -0.904457 3.810092 -0.314207 0.604429 0.000000 0.000000 0.000000 0.000000 0.000000 0.000000 5.784858 -0.584788 -2.125358 -5.066380 -0.444520 -0.068375 0.000000 0.000000 0.000000 13.858633 0.106282 0.070929 0.000000 0.000000 0.000000 0.000000 0.000000 0.000000
-12.663900 60.002603 -10.942773 12.975836 -0.143090 1.897913 12.975836 -0.143090 1.897913 1.934251 0.469976 1.195668 1.989852 0.628683 0.809970 5.000000 0.000000 0.000000 13.835508 2.498409 9.816119 14.205071 1.954203 -2.464670 104.422850 10.142182 -0.467987 0.000000 0.000000 0.000000 9.415395 -2.131437 -0.045414 4.372454 -0.331964 0.604110 95.090589 8.794769 0.924697 0.000000 0.000000 0.000000 5.760276 -0.600664 -1.824374 -2.729494 -0.115583 0.182151 0.000000 0.000000 0.000000 14.489932 0.114460 -0.148858 0.000000 0.000000 0.000000 0.000000 0.000000 0.000000
-13.540573 60.003085 -11.087628 11.937427 -0.029363 2.306511 11.937427 -0.029363 2.306511 1.916691 0.484357 1.236758 1.966430 0.669248 0.856268 5.000000 0.000000 0.000000 10.052583 2.145540 8.392559 8.697570 1.470258 -2.191095 98.907394 10.392265 -1.192127 0.000000 0.000000 0.000000 9.096047 -1.896684 0.781308 3.380617 -0.292138 0.578131 92.598527 12.542319 -0.312495 0.000000 0.000000 0.000000 5.305995 -0.605134 -0.864122 -0.086653 0.234430 0.450641 0.000000 0.000000 0.000000 17.843046 0.157916 -0.098683 0.000000 0.000000 0.000000 0.000000 0.000000 0.000000
-14.169176 60.003067 -13.387202 9.603561 0.132257 2.548105 9.603561 0.132257 2.548105 1.623274 0.492025 1.249241 1.704755 0.695006 0.865232 5.000000 0.000000 0.000000 4.853982 1.638627 7.183233 4.118477 0.983399 -1.721860 95.833555 -1.858270 0.190943 0.000000 0.000000 0.000000 7.611373 -1.502770 1.072304 1.616003 -0.214726 0.513923 91.801081 13.012868 -0.575595 0.000000 0.000000 0.000000 4.037687 -0.532951 0.780729 -0.047965 0.299199 0.566234 0.000000 0.000000 0.000000 23.111338 0.183750 0.787374 0.000000 0.000000 0.000000 0.000000 0.000000 0.000000
-14.764725 60.002058 -16.163598 6.949613 0.258664 2.453827 6.949613 0.258664 2.453827 1.119262 0.498321 1.246462 1.253696 0.784637 0.932375 5.000000 0.000000 0.000000 4.087310 1.435003 6.113185 1.096422 0.549821 -1.118364 93.466455 -6.067585 0.982990 0.000000 0.000000 0.000000 7.213974 -1.593288 0.199842 0.626243 -0.197379 0.552267 90.469334 12.370963 -0.642517 0.000000 0.000000 0.000000 1.504711 -0.224403 1.483931 0.000000 0.000000 0.000000 0.000000 0.000000 0.000000 19.050254 0.038895 3.416040 0.000000 0.000000 0.000000 0.000000 0.000000 0.000000
-15.207094 60.000723 -17.864824 6.491678 0.241803 2.244212 6.491678 0.241803 2.244212 0.931370 0.553091 1.384464 1.088723 0.903969 1.053545 5.000000 0.000000 0.000000 3.962625 1.308794 5.267865 -0.512633 0.321422 -0.757614 93.156048 -9.229143 1.579135 0.000000 0.000000 0.000000 6.813129 -1.658506 -0.519688 -0.251221 -0.214580 0.686729 90.908042 9.151771 0.297673 0.000000 0.000000 0.000000 1.394113 -0.222715 1.980493 0.000000 0.000000 0.000000 0.000000 0.000000 0.000000 19.026888 0.025734 3.877994 0.000000 0.000000 0.000000 0.000000 0.000000 0.000000
-15.529126 60.000032 -18.615721 6.284696 0.252467 2.242972 6.284696 0.252467 2.242972 0.628653 0.583558 1.448135 0.840794 0.987150 1.123608 5.000000 0.000000 0.000000 3.383698 1.237984 5.181299 -1.302227 0.204813 -0.555495 91.043952 -10.049423 2.000701 0.000000 0.000000 0.000000 6.115163 -1.740023 -1.594113 -0.223174 -0.287209 0.908116 90.739760 4.905580 1.404459 0.000000 0.000000 0.000000 2.703824 -0.402237 1.801188 0.000000 0.000000 0.000000 0.000000 0.000000 0.000000 19.713908 0.031940 3.175754 0.000000 0.000000 0.000000 0.000000 0.000000 0.000000
